<svg width="227" height="229" viewBox="0 0 227 229" fill="none" xmlns="http://www.w3.org/2000/svg">
<path d="M192.213 102.972C192.213 102.972 208.826 124.829 166.04 153.433C123.252 182.036 63.6012 191.5 51.7309 160.697C39.8606 129.894 50.9434 139.015 96.5512 133.742C142.158 128.47 172.524 80.6299 179.862 85.844C187.196 91.0597 192.213 102.972 192.213 102.972Z" fill="#F9A332"/>
<path d="M88.5656 175.757C75.6898 175.757 64.77 172.693 57.8018 165.914C60.8847 164.445 63.3254 162.954 65.3648 161.71C67.6892 160.291 69.572 159.141 70.7414 159.141C70.8665 159.141 70.9837 159.154 71.0922 159.182C71.6863 159.333 72.3118 159.982 73.0043 161.166C75.0083 164.591 77.7442 166.464 80.7366 166.464C80.8569 166.464 80.9774 166.461 81.0985 166.455C84.2663 166.3 87.1879 163.979 88.9141 160.247C89.9378 158.034 91.2747 156.689 93.0002 156.137C93.6398 155.932 94.3536 155.83 95.138 155.83C98.0186 155.83 101.866 157.208 106.615 159.948C106.634 159.958 106.65 159.968 106.668 159.978C108.643 161.161 110.858 161.879 113.475 161.947C113.689 161.954 113.9 161.956 114.109 161.956C121.347 161.956 124.762 158.617 126.826 156.599C127.363 156.073 128.176 155.28 128.45 155.257C128.453 155.257 128.693 155.293 129.238 155.842C126.808 158.713 121.82 164.278 114.199 164.278C110.929 164.278 107.175 163.252 102.931 160.551C101.066 159.364 99.1572 158.869 97.4324 158.869C92.506 158.869 89.0794 162.914 92.484 166.453C93.8838 167.908 96.6959 168.413 99.9291 168.413C105.155 168.413 111.477 167.092 114.7 166.321C121.169 164.727 127.764 162.609 134.318 160.024C135.516 160.562 136.742 160.846 137.9 160.846C139.046 160.846 140.126 160.568 141.046 159.981C141.831 159.481 143.084 158.351 143.405 156.124C151.212 152.502 158.852 148.239 166.039 143.434C182.735 132.271 190.386 122.139 193.508 113.929C193.524 115.222 193.427 116.628 193.167 118.14C192.747 120.602 191.931 123.095 190.734 125.609C186.573 132.636 179.055 140.711 166.039 149.413C141.706 165.68 111.917 175.757 88.5656 175.757ZM142.044 149.221C141.968 149.048 141.888 148.873 141.805 148.694C141.535 148.118 141.291 147.511 141.072 146.875C141.11 146.875 141.145 146.875 141.183 146.875C149.503 146.875 152.67 142.724 156.506 137.695C157.862 135.917 159.263 134.079 161.061 132.143C164.305 128.648 169.271 128.436 174.074 128.23C177.233 128.095 180.261 127.965 182.563 126.817C176.967 132.424 169.599 126.813 165.19 133.854C160.176 141.863 155.718 147.484 146.247 148.608C144.707 148.791 143.314 148.993 142.044 149.221ZM186.419 120.387C186.442 119.956 186.442 119.503 186.421 119.03C186.254 115.217 186.234 112.615 186.644 111.428C186.866 110.786 187.153 110.617 188.67 109.95C189.668 109.511 190.946 108.948 192.543 107.943C192.773 108.65 192.985 109.449 193.154 110.337C186.896 111.853 189.336 113.394 186.419 120.387Z" fill="#BF6700"/>
<path d="M178.525 87.3494C178.093 87.3494 177.018 87.5998 174.669 89.2629C171.932 91.202 168.372 94.4039 164.248 98.1096C149.143 111.689 126.315 132.212 96.7656 135.627C85.9606 136.877 77.1158 137.32 70.0084 137.678C59.0366 138.229 51.7882 138.593 49.8842 141.557C48.0618 144.391 50.0061 150.984 53.4847 160.01C56.3432 167.429 62.2839 172.628 71.1413 175.465C94.0753 182.809 133.547 172.879 165 151.852C181.546 140.791 191.286 129.133 193.168 118.139C194.643 109.525 190.876 104.336 190.715 104.12C190.623 103.997 190.541 103.856 190.482 103.715C190.417 103.559 185.569 92.2233 178.778 87.3958C178.775 87.3943 178.707 87.3494 178.525 87.3494ZM88.599 181.695C81.7007 181.695 75.45 180.825 70.0036 179.081C60.0075 175.88 53.2706 169.926 49.9793 161.385C45.7681 150.459 44.0033 143.734 46.7282 139.493C49.6795 134.9 56.8335 134.541 69.8211 133.889C76.8751 133.534 85.6531 133.094 96.3376 131.858C124.704 128.579 146.996 108.538 161.748 95.2782C171.613 86.4091 177.045 81.5231 180.944 84.2945C188.185 89.4429 193.133 100.364 193.858 102.033C194.691 103.24 198.446 109.311 196.898 118.639C194.866 130.907 184.832 143.145 167.079 155.014C151.633 165.34 133.524 173.47 116.086 177.908C106.173 180.429 96.9159 181.695 88.599 181.695Z" fill="#6D184E"/>
<path d="M43.8739 141.301C43.8739 141.301 33.0101 139.615 32.035 147.061C31.0601 154.508 43.0383 151.558 42.8991 157.319C42.7598 163.08 42.6205 170.667 54.8779 165.469C67.1345 160.27 70.4771 153.681 74.3775 160.348C78.2771 167.014 84.5451 165.89 87.4697 159.567C90.3951 153.244 96.1446 152.056 107.408 158.552C113.434 162.027 116.704 157.075 120.795 152.123C124.349 147.821 128.523 143.518 135.663 144.743C151.018 147.378 151.681 139.896 159.897 131.044C168.115 122.191 185.387 131.887 184.83 119.099C184.273 106.313 185.595 111.126 193.221 105.541C200.847 99.9552 200.742 86.8876 185.804 88.0478C170.866 89.2064 133.713 143.268 43.8739 141.301Z" fill="#48C75A"/>
<path d="M184.957 108.402C185.521 106.04 188.211 104.602 193.795 100.219C194.781 99.444 195.768 98.1581 196.597 96.8663C196.393 99.5481 194.807 102.392 192.285 104.241C190.191 105.772 188.642 106.454 187.396 107.001C186.369 107.452 185.571 107.876 184.957 108.402Z" fill="#B6E9BD"/>
<path d="M145.797 143.053C150.716 140.363 153.059 134.669 158.514 128.37C165.388 120.432 178.187 125.505 183.146 121.068C182.999 121.945 182.7 122.628 182.239 123.134C180.793 124.723 177.463 124.866 173.938 125.016C168.749 125.238 162.867 125.491 158.734 129.944C156.831 131.994 155.316 133.981 153.979 135.733C151.259 139.299 149.266 141.914 145.797 143.053Z" fill="#B6E9BD"/>
<path d="M48.1361 165.599C47.2714 165.599 46.579 165.426 46.0738 165.077C44.3349 163.881 44.4222 160.265 44.4923 157.358C44.5867 153.472 40.9216 152.322 38.2463 151.483C34.7091 150.373 33.2997 149.681 33.6153 147.272C33.784 145.984 34.3313 145.005 35.2886 144.278C36.5546 143.318 38.3934 142.921 40.068 142.794C44.8142 150.231 52.0672 154.365 60.5422 154.365C61.6164 154.365 62.7116 154.298 63.8219 154.164C74.3214 152.715 84.8808 150.455 95.4206 147.405C95.8313 147.97 96.235 148.53 96.6331 149.085C97.7025 150.57 98.7395 152.011 99.7879 153.358C98.0934 152.861 96.5426 152.614 95.1271 152.614C94.0146 152.614 92.9846 152.767 92.0357 153.072C89.4493 153.9 87.4271 155.856 86.0258 158.887C84.8084 161.518 82.909 163.146 80.9451 163.242C80.8892 163.245 80.8342 163.245 80.7783 163.245C78.9395 163.245 77.162 161.944 75.7504 159.531C74.5866 157.541 73.3536 156.439 71.8705 156.063C71.4952 155.967 71.1199 155.923 70.7414 155.923C68.6868 155.923 66.5302 157.238 63.714 158.958C61.2804 160.443 58.2519 162.293 54.2594 163.986C51.7328 165.058 49.665 165.599 48.1361 165.599ZM141.331 143.685C140.98 143.685 140.617 143.677 140.241 143.658C139.509 139.68 139.635 134.982 140.793 130.073C154.495 123.68 167.28 116.177 178.964 107.661C184.637 103.382 187.947 97.5882 188.7 91.063C188.796 91.0428 188.889 91.024 188.984 91.0052C189.801 95.8904 188.978 102.267 182.461 108.281C169.368 120.364 154.604 123.596 147.918 130.482C143.89 134.631 143.452 139.95 143.741 143.525C143.004 143.63 142.205 143.685 141.331 143.685Z" fill="#539256"/>
<path d="M41.4048 142.744C39.4542 142.744 36.9048 143.052 35.2887 144.279C34.3314 145.006 33.784 145.984 33.6152 147.273C33.2998 149.682 34.709 150.373 38.2464 151.483C40.9216 152.322 44.5867 153.472 44.4922 157.358C44.4222 160.265 44.3348 163.882 46.0738 165.078C47.4735 166.041 50.3039 165.664 54.2593 163.986C58.2517 162.293 61.2802 160.444 63.7139 158.958C67.0486 156.922 69.4595 155.452 71.8704 156.063C73.3536 156.439 74.5864 157.542 75.7502 159.531C77.2043 162.016 79.047 163.324 80.9449 163.243C82.9089 163.147 84.8084 161.519 86.0256 158.887C87.427 155.856 89.449 153.9 92.0355 153.072C95.9634 151.812 101.251 153.149 108.199 157.156C112.386 159.571 114.647 157.141 118.611 152.269C122.451 147.545 127.23 141.665 135.93 143.158C146.883 145.039 149.403 141.733 153.979 135.734C155.316 133.981 156.831 131.994 158.734 129.945C162.867 125.492 168.75 125.239 173.938 125.017C177.463 124.866 180.793 124.723 182.238 123.134C182.99 122.307 183.317 121.01 183.236 119.171C182.844 110.162 183.31 108.797 187.396 107.002C188.641 106.453 190.193 105.772 192.285 104.24C195.737 101.71 197.436 97.3175 196.235 94.0222C195.053 90.7785 191.393 89.224 185.926 89.6513C182.266 89.9346 176.28 94.4086 168.7 100.073C157.926 108.126 143.169 119.156 122.837 128.04C98.8369 138.528 72.2535 143.532 43.8392 142.909C43.7708 142.907 43.7023 142.901 43.6338 142.891C43.1436 142.816 42.3434 142.744 41.4048 142.744ZM48.1204 168.808C46.5915 168.808 45.3161 168.45 44.2775 167.735C41.1058 165.552 41.2166 160.966 41.3056 157.28C41.3355 156.033 40.3314 155.505 37.299 154.554C34.2954 153.612 29.7561 152.187 30.4549 146.851C30.7378 144.69 31.7227 142.957 33.3817 141.702C37.1118 138.88 43.0823 139.568 44.0044 139.695C108.479 141.077 144.984 113.794 166.803 97.4902C175.416 91.0527 181.107 86.7999 185.681 86.4439C195.502 85.6848 198.426 90.7148 199.228 92.9117C200.931 97.5841 198.798 103.443 194.158 106.841C191.783 108.58 189.984 109.371 188.67 109.95C187.153 110.617 186.866 110.786 186.644 111.429C186.234 112.615 186.255 115.216 186.422 119.03C186.54 121.766 185.941 123.82 184.588 125.308C182.25 127.88 178.277 128.05 174.074 128.23C169.271 128.436 164.304 128.648 161.062 132.143C159.262 134.079 157.861 135.917 156.505 137.695C151.887 143.75 148.239 148.532 135.394 146.329C128.52 145.149 124.735 149.805 121.074 154.308C117.448 158.769 113.336 163.824 106.616 159.948C100.571 156.461 95.9901 155.18 93.0001 156.137C91.2745 156.689 89.9377 158.034 88.9141 160.247C87.1877 163.979 84.2662 166.3 81.0984 166.455C77.9653 166.612 75.0893 164.729 73.0041 161.166C72.3118 159.982 71.6863 159.332 71.0921 159.182C69.9701 158.898 67.9377 160.138 65.3647 161.71C62.8421 163.25 59.7027 165.167 55.4954 166.951C52.5739 168.19 50.1292 168.808 48.1204 168.808Z" fill="#6D184E"/>
<path d="M160.201 61.4887C158.264 62.2704 156.599 63.5037 155.232 65.083C146.914 70.8602 128.793 82.4927 105.803 91.6587C82.8966 101.026 61.8242 105.219 51.8518 106.828C49.7824 106.638 47.7342 106.904 45.797 107.686C36.9608 111.254 33.7841 124.195 38.7021 136.589C43.6198 148.983 53.3877 153.807 63.6063 152.57C86.3453 149.434 106.669 142.829 123.291 135.728C140.178 129.297 159.407 119.931 178.01 106.373C186.253 100.156 190.023 89.8651 185.105 77.4697C180.188 65.0758 169.037 57.9219 160.201 61.4887Z" fill="#DB2839"/>
<path d="M60.4781 151.155C51.3571 151.155 44.056 145.756 40.1816 135.992C39.8865 135.248 39.6207 134.499 39.3838 133.749C39.9912 133.537 40.6144 133.326 41.2493 133.124C40.7992 135.197 40.723 137.328 41.8709 139.089C43.0135 140.841 45.0781 141.835 48.1823 142.13C48.637 142.173 49.0808 142.193 49.5143 142.193C55.9577 142.193 60.1044 137.637 63.1841 134.253C65.0702 132.182 66.8515 130.224 68.3127 130.224C68.3238 130.224 68.3347 130.224 68.345 130.224C69.1987 130.241 70.2097 130.938 71.3507 132.294C75.3934 137.105 80.6811 139.722 86.318 139.721C86.5713 139.721 86.8262 139.716 87.0812 139.705C87.7625 139.676 88.4368 139.609 89.1026 139.504C90.6652 141.207 92.0689 142.937 93.3751 144.649C83.3735 147.486 73.3619 149.602 63.4162 150.974C62.4176 151.095 61.4381 151.155 60.4781 151.155ZM67.8036 134.198C67.5558 134.198 67.337 134.33 67.1341 134.627C66.3291 135.804 64.6098 137.45 62.8001 139.03C61.6089 140.069 61.9644 141.995 63.4304 142.576C66.0513 143.615 68.8453 144.117 71.7118 144.117C72.7276 144.117 73.7529 144.054 74.7821 143.929C74.8135 143.925 74.845 143.921 74.8765 143.916C76.8655 143.641 77.3314 140.954 75.5633 139.995C71.0572 137.551 69.0555 134.198 67.8036 134.198ZM141.999 125.949C143.912 120.49 147.118 114.952 151.848 110.007C152.576 110.068 153.314 110.104 154.055 110.104C154.701 110.104 155.348 110.076 155.988 110.011C154.328 111.932 152.879 113.802 151.66 115.488C150.601 116.952 151.755 118.803 153.297 118.803C153.588 118.803 153.895 118.736 154.203 118.587C158.617 116.457 163.101 114.127 167.618 111.58C159.531 116.835 150.972 121.635 141.999 125.949ZM166.34 100.339C166.435 100.006 166.516 99.6778 166.587 99.3586C174.126 95.3698 180.413 93.142 185.405 91.838C185.338 92.2353 185.259 92.6283 185.169 93.0186C178.06 93.4528 171.716 96.4284 166.34 100.339Z" fill="#A92142"/>
<path d="M50.5783 108.377C49.1156 108.377 47.7111 108.645 46.3898 109.179C42.6052 110.708 39.8528 114.272 38.6395 119.214C37.3789 124.349 37.9266 130.307 40.1825 135.991C44.4644 146.782 52.9317 152.242 63.4171 150.974C83.1071 148.257 103.051 142.628 122.67 134.247C122.689 134.238 122.707 134.23 122.728 134.223C142.661 126.634 160.946 116.824 177.077 105.07C185.513 98.7064 187.907 88.8586 183.625 78.0674C179.043 66.5162 168.799 59.7476 160.793 62.9827L160.202 61.4889L160.793 62.9827C159.135 63.6509 157.669 64.7137 156.432 66.1405C156.344 66.241 156.246 66.3298 156.136 66.407C147.409 72.4679 129.342 84.0032 106.391 93.1536C83.532 102.502 62.5658 106.729 52.104 108.416C51.9725 108.436 51.8387 108.441 51.7074 108.429C51.3273 108.394 50.9512 108.377 50.5783 108.377ZM60.5428 154.365C50.1313 154.365 41.5635 148.125 37.2225 137.187C34.7211 130.882 34.1252 124.224 35.5449 118.441C37.0115 112.466 40.4421 108.116 45.2049 106.193C47.2735 105.357 49.4892 105.028 51.7923 105.209C62.1835 103.523 82.7656 99.3441 105.206 90.1675C127.736 81.186 145.493 69.8822 154.168 63.8693C155.711 62.1339 157.541 60.8323 159.609 59.9951C169.246 56.1049 181.349 63.6742 186.585 76.8721C191.373 88.9402 188.525 100.449 178.965 107.662C162.595 119.592 144.07 129.532 123.882 137.221C104.015 145.706 83.8082 151.407 63.8223 154.164C62.7121 154.298 61.6169 154.365 60.5428 154.365Z" fill="#6D184E"/>
<path d="M41.6457 121.208C41.6457 121.208 30.9209 125.564 28.2746 133.011C26.7024 137.434 31.2247 134.967 38.1042 132.499C42.8063 130.812 48.6092 129.125 54.3202 129.639C59.5346 130.107 61.534 128.53 62.9857 126.953C65.45 124.275 66.3351 121.595 78.6949 128.936C98.3344 140.599 100.145 159.989 113.516 160.34C118.871 160.481 121.947 158.739 124.034 156.999C127.157 154.392 128.06 151.786 131.065 155.493C136.08 161.675 145.585 160.551 140.362 149.38C135.139 138.209 138.448 113.62 162.126 99.9906C185.804 86.3614 198.478 89.3116 199.593 87.3453C200.708 85.3775 195.414 75.26 178.561 74.98C161.708 74.6984 119.366 118.117 41.6457 121.208Z" fill="#FCAF15"/>
<path d="M114.08 158.739C113.908 158.739 113.735 158.737 113.557 158.732C107.401 158.57 103.967 153.8 99.2131 147.195C97.2854 144.517 95.1533 141.554 92.5644 138.587C95.9016 137.326 98.8457 135.054 101.024 131.978C103.084 129.069 104.868 127.957 107.073 127.957C109.209 127.957 111.74 129.003 115.296 130.473C117.543 131.4 120.09 132.453 123.055 133.417C124.986 134.044 126.881 134.352 128.69 134.352C131.906 134.352 134.854 133.377 137.254 131.477C136.928 132.096 136.638 132.719 136.38 133.342C133.495 134.9 130.659 135.479 127.931 135.479C124 135.479 120.296 134.276 117.008 133.072C113.719 131.868 110.847 130.665 108.574 130.665C107.308 130.665 106.229 131.038 105.368 131.992C102.296 135.395 99.2645 138.793 97.4127 139.841C102.913 147.394 106.273 153.748 113.849 153.946C114.034 153.951 114.215 153.954 114.395 153.954C119.508 153.954 122.407 152.013 124.362 150.072C126.315 148.131 127.324 146.191 128.655 146.191C129.324 146.191 130.074 146.68 131.065 147.902C132.854 150.107 135.212 151.381 137.271 151.6C138.183 154.358 138.029 156.327 137.242 157.573C135.686 157.339 133.788 156.31 132.3 154.475C131.422 153.392 130.212 152.138 128.633 152.046C128.573 152.043 128.511 152.041 128.451 152.041C126.913 152.041 125.792 153.131 124.609 154.289C122.674 156.18 120.043 158.739 114.08 158.739ZM29.7012 133.771C29.7226 133.705 29.747 133.631 29.775 133.552C30.7402 130.837 32.9699 128.54 35.281 126.768C36.7304 126.738 38.2317 126.623 39.718 126.509C40.6378 126.439 41.5065 126.372 42.3587 126.326C42.4428 126.321 42.5184 126.319 42.5861 126.319C42.8048 126.319 42.9432 126.34 43.022 126.359C43.0998 126.909 42.6678 128.332 42.3122 129.447C39.3922 130.267 36.6934 131.292 34.3691 132.176C32.7383 132.795 30.796 133.533 29.7012 133.771Z" fill="#D18126"/>
<path d="M54.5146 129.653C63.0492 130.346 62.7952 125.459 66.0003 124.388C59.9327 123.015 61.5508 128.95 54.5146 129.653Z" fill="#F8CE36"/>
<path d="M28.1143 135.052C29.4693 137.165 39.7778 130.205 50.6815 129.589C41.7615 129.042 32.7306 133.647 28.1143 135.052Z" fill="#F8CE36"/>
<path d="M137.899 151.636C137.693 151.636 137.483 151.624 137.269 151.602C137.041 150.911 136.745 150.171 136.375 149.38C134.549 145.475 133.89 139.376 136.38 133.343C136.594 133.226 136.81 133.104 137.025 132.977C136.14 139.333 136.772 145.471 138.921 150.066C139.131 150.516 139.318 150.953 139.478 151.375C138.998 151.549 138.464 151.636 137.899 151.636Z" fill="#FED78A"/>
<path d="M137.907 157.625C137.694 157.625 137.471 157.608 137.241 157.573C138.028 156.328 138.183 154.358 137.27 151.601C137.482 151.624 137.693 151.637 137.899 151.637C138.463 151.637 138.998 151.55 139.479 151.374C140.596 154.283 140.564 156.484 139.344 157.263C138.964 157.504 138.47 157.625 137.907 157.625ZM136.379 133.342C136.636 132.72 136.927 132.096 137.253 131.477C137.256 131.474 137.259 131.472 137.263 131.469C137.174 131.973 137.095 132.475 137.025 132.978C136.81 133.104 136.594 133.226 136.379 133.342Z" fill="#E8C093"/>
<path d="M142.743 116.668C142.585 115.149 142.266 113.592 141.78 112.018C141.069 109.712 141.482 109.195 141.5 109.173C141.686 108.957 142.182 108.875 142.837 108.875C144.09 108.875 145.926 109.173 147.302 109.396C147.5 109.428 147.701 109.46 147.907 109.494C145.812 111.894 144.117 114.32 142.743 116.668Z" fill="#D18126"/>
<path d="M67.297 122.585C69.7771 122.585 73.4068 123.929 79.504 127.55C89.2318 133.327 94.7664 141.017 99.2136 147.196C103.967 153.8 107.401 158.57 113.557 158.733C119.892 158.886 122.619 156.235 124.609 154.289C125.837 153.087 127.001 151.956 128.634 152.046C130.212 152.138 131.423 153.393 132.3 154.474C134.593 157.301 137.853 158.212 139.344 157.262C140.742 156.371 140.58 153.614 138.921 150.067C135.886 143.574 135.877 134.003 138.898 125.087C141.506 117.393 147.516 106.548 161.336 98.5931C178.39 88.7781 189.943 87.4064 195.495 86.7479C196.455 86.6338 197.517 86.5076 198.1 86.3738C197.981 85.8248 197.56 84.7252 196.356 83.317C194.678 81.3552 189.583 76.7716 178.534 76.5876C173.407 76.4873 165.3 81.0343 154.069 87.309C130.286 100.591 94.3714 120.652 42.001 122.803C40.4523 123.484 31.9384 127.466 29.7753 133.553C29.7472 133.632 29.7228 133.705 29.7016 133.771C30.7963 133.534 32.7385 132.796 34.3695 132.176C39.7081 130.147 47.0226 127.371 54.4621 128.036C59.5145 128.493 60.8717 126.946 62.3077 125.31C63.6839 123.741 64.997 122.585 67.297 122.585ZM114.109 161.956C113.901 161.956 113.688 161.953 113.474 161.947C105.745 161.745 101.523 155.878 96.6336 149.085C92.1375 142.839 87.042 135.759 77.8871 130.322C72.9071 127.365 69.519 125.884 67.5299 125.795C66.2442 125.745 65.7595 126.227 64.6942 127.441C63.0663 129.297 60.8347 131.835 54.1796 131.24C47.4623 130.635 40.5445 133.266 35.493 135.185C31.0422 136.877 28.5898 137.809 27.0953 136.326C25.8448 135.084 26.5443 133.115 26.7743 132.468C29.6294 124.434 40.5862 119.905 41.0504 119.717C41.2204 119.648 41.4005 119.609 41.5831 119.601C93.354 117.542 128.962 97.6548 152.524 84.4941C164.189 77.9806 172.618 73.2769 178.587 73.3727C190.543 73.5719 197.636 78.662 200.286 83.3596C200.919 84.4834 201.852 86.5988 200.978 88.1424C200.253 89.4214 198.787 89.5947 195.867 89.9415C190.523 90.5756 179.406 91.8957 162.917 101.388C140.983 114.012 136.512 137.373 141.805 148.694C145.317 156.207 142.445 159.09 141.046 159.981C137.942 161.96 133.016 160.436 129.832 156.511C128.864 155.318 128.454 155.258 128.45 155.257C128.177 155.279 127.364 156.073 126.828 156.599C124.762 158.616 121.348 161.956 114.109 161.956Z" fill="#6D184E"/>
<path d="M125.895 141.951C125.895 141.951 121.034 151.07 113.849 149.959C108.397 149.116 117.506 150.189 119.872 143.532C122.605 135.837 127.302 139.843 125.895 141.951Z" fill="#F8CE36"/>
<path d="M48.3312 104.698C48.3312 104.698 29.11 105.752 26.8118 116.501C24.5138 127.25 34.5421 125.142 42.2726 124.721C50.0026 124.299 34.9597 139.264 48.3312 140.528C53.9211 141.057 57.6482 137.829 60.6893 134.6C64.9225 130.107 67.8245 125.613 72.5667 131.254C80.7144 140.949 93.4588 139.896 99.7268 131.044C105.995 122.192 111.217 127.883 123.544 131.887C135.871 135.892 144.228 125.353 140.259 112.496C138.287 106.113 142.548 107.004 148.078 107.893C153.689 108.795 160.607 109.697 163.657 103.012C169.715 89.7333 156.763 87.4155 172.223 84.2543C187.684 81.0915 194.369 80.0388 191.863 71.5032C189.356 62.9661 183.505 56.6436 163.866 65.0745C144.228 73.504 126.469 110.389 48.3312 104.698Z" fill="#48C75A"/>
<path d="M45.2442 130.752C46.0728 128.175 46.7769 125.951 45.5589 124.354C44.9263 123.523 43.9215 123.105 42.5689 123.105C42.4446 123.105 42.3171 123.107 42.1865 123.114C41.2997 123.163 40.3736 123.233 39.4774 123.303C37.862 123.426 36.1632 123.556 34.5888 123.556C34.4071 123.556 34.2267 123.555 34.0487 123.552C35.1238 119.674 37.1232 115.891 33.5507 115.891C33.452 115.891 33.3491 115.892 33.2417 115.9C31.7212 115.982 30.1122 116.129 28.5254 116.232C29.3476 113.464 31.5782 111.46 34.2637 110.008C34.571 111.589 34.9272 113.151 35.3308 114.695C41.7136 117.954 48.5961 120.172 55.843 121.413C52.9442 123.924 49.9251 128.679 45.2442 130.752ZM77.3119 129.291C75.5108 129.291 73.6861 128.989 71.9016 128.368C70.9487 127.632 69.9927 127.199 69.0177 127.057C67.0617 125.949 65.2025 124.415 63.5358 122.432C63.5131 122.405 63.4902 122.378 63.4674 122.352C65.7422 122.526 68.0468 122.613 70.3752 122.613C77.485 122.613 84.8271 121.808 92.2973 120.249C91.7686 120.805 91.2359 121.46 90.6961 122.223C87.4558 126.8 82.4846 129.291 77.3119 129.291ZM119.657 123.927C118.046 123.927 116.323 123.652 114.514 123.065C108.841 121.222 104.672 119.022 101.214 118.046C106.818 116.453 112.465 114.455 118.113 112.074C118.135 112.064 118.159 112.054 118.183 112.044C118.189 112.042 118.196 112.039 118.203 112.036C118.221 112.029 118.235 112.023 118.253 112.015C118.26 112.012 118.267 112.009 118.276 112.006C118.292 111.999 118.311 111.991 118.327 111.984C118.333 111.981 118.339 111.979 118.344 111.976C118.367 111.967 118.391 111.957 118.413 111.948L118.414 111.947C118.44 111.937 118.465 111.926 118.489 111.916C118.49 111.914 118.492 111.914 118.493 111.914C118.515 111.904 118.537 111.894 118.56 111.884C118.563 111.883 118.569 111.882 118.573 111.879C118.593 111.87 118.614 111.862 118.635 111.853C118.638 111.852 118.642 111.851 118.645 111.849C118.667 111.839 118.691 111.829 118.715 111.819L118.716 111.818C118.767 111.797 118.814 111.776 118.865 111.754C118.866 111.754 118.869 111.753 118.87 111.753C118.893 111.743 118.915 111.733 118.938 111.723C118.941 111.722 118.942 111.722 118.945 111.72C119.044 111.678 119.143 111.637 119.241 111.593L119.244 111.592C119.468 111.495 119.691 111.399 119.914 111.301L119.918 111.3C120.017 111.258 120.115 111.214 120.214 111.171L120.217 111.168C120.315 111.126 120.412 111.083 120.512 111.041C120.515 111.038 120.515 111.038 120.517 111.037C120.616 110.993 120.711 110.952 120.809 110.908C120.812 110.907 120.813 110.907 120.816 110.905C120.837 110.895 120.861 110.885 120.882 110.875C120.886 110.874 120.886 110.874 120.889 110.873C120.961 110.841 121.035 110.807 121.107 110.776C121.109 110.775 121.112 110.774 121.115 110.771C121.136 110.762 121.157 110.754 121.177 110.744C121.18 110.742 121.185 110.741 121.188 110.738C121.213 110.728 121.233 110.718 121.257 110.708H121.258C121.306 110.686 121.355 110.665 121.403 110.643C121.407 110.64 121.411 110.639 121.415 110.638C121.433 110.629 121.455 110.619 121.473 110.612C121.478 110.609 121.483 110.608 121.487 110.605C121.505 110.597 121.527 110.588 121.546 110.58C121.55 110.577 121.554 110.575 121.56 110.573C121.606 110.553 121.651 110.532 121.697 110.51C121.703 110.507 121.711 110.503 121.718 110.502C121.734 110.495 121.751 110.486 121.767 110.479C121.774 110.475 121.781 110.473 121.788 110.469C121.805 110.462 121.819 110.455 121.836 110.448C121.845 110.444 121.852 110.441 121.859 110.438C121.877 110.43 121.896 110.421 121.915 110.413C121.917 110.411 121.923 110.408 121.927 110.407C121.95 110.397 121.974 110.386 121.996 110.376C122.002 110.373 122.007 110.37 122.013 110.369C122.028 110.36 122.047 110.353 122.063 110.346C122.07 110.342 122.08 110.338 122.089 110.333C122.103 110.328 122.115 110.321 122.129 110.315C122.141 110.311 122.149 110.306 122.16 110.301C122.173 110.295 122.184 110.291 122.197 110.285C122.206 110.28 122.218 110.275 122.227 110.271C122.239 110.265 122.25 110.26 122.261 110.256C122.282 110.246 122.306 110.234 122.327 110.226C122.336 110.222 122.347 110.216 122.355 110.212C122.369 110.206 122.38 110.2 122.394 110.195C122.403 110.19 122.411 110.186 122.42 110.182C122.434 110.176 122.448 110.169 122.46 110.164C122.469 110.161 122.477 110.156 122.484 110.154C122.5 110.145 122.514 110.139 122.529 110.132C122.531 110.132 122.532 110.131 122.533 110.131C122.589 110.104 122.647 110.079 122.704 110.052C122.706 110.052 122.709 110.05 122.711 110.049C122.73 110.04 122.749 110.032 122.768 110.023L122.769 110.022C125.839 108.61 128.825 107.112 131.721 105.534C133.967 115.673 128.494 123.927 119.657 123.927ZM145.107 99.6936C144.007 99.6936 142.891 99.603 141.791 99.47C147.056 95.9701 151.922 92.1702 156.322 88.0943C156.179 89.8251 155.703 91.8348 154.628 94.1897C152.629 98.5699 148.971 99.6936 145.107 99.6936ZM168.594 74.324C170.986 71.0066 173.103 67.5619 174.918 64.0012C174.8 63.745 174.681 63.4889 174.562 63.2341C176.279 62.8874 177.856 62.7133 179.29 62.7133C180.646 62.7133 181.875 62.869 182.971 63.1818C184.802 70.2268 179.921 71.9435 168.594 74.324Z" fill="#539256"/>
<path d="M86.3192 136.505C86.2687 136.505 86.2173 136.505 86.165 136.505C88.9903 135.254 91.5216 133.222 93.4652 130.477C96.0452 126.833 98.4594 125.517 101.212 125.517C101.813 125.517 102.432 125.58 103.072 125.696C101.512 126.515 99.9811 127.919 98.4287 130.109C95.6927 133.975 91.5081 136.301 86.9484 136.492C86.7384 136.501 86.5292 136.505 86.3192 136.505Z" fill="#A4E3AD"/>
<path d="M129.669 131.112C135.878 128.223 138.263 120.317 136.415 110.822C135.682 107.057 137.307 106.12 140.067 106.12C140.167 106.12 140.268 106.12 140.37 106.123C139.881 106.34 139.452 106.648 139.09 107.068C137.654 108.739 138.2 111.239 138.736 112.974C140.574 118.924 139.59 124.742 136.169 128.159C134.406 129.921 132.187 130.915 129.669 131.112ZM154.174 106.886C153.829 106.886 153.474 106.877 153.114 106.86C156.395 106.369 159.383 104.782 161.212 100.772C167.633 86.7008 153.907 84.2438 170.29 80.8932C181.539 78.5931 188.401 77.345 190.738 73.8592C190.902 75.3049 190.59 76.0794 190.297 76.5676C188.696 79.2557 182.615 80.4951 173.411 82.3709L171.906 82.6775C166.656 83.7512 164.313 84.7785 163.263 86.4669C162.295 88.0202 162.708 89.6533 163.143 91.3839C163.788 93.9397 164.591 97.1203 162.21 102.339C160.61 105.846 157.795 106.886 154.174 106.886Z" fill="#A4E3AD"/>
<path d="M42.5685 123.105C43.9211 123.105 44.9259 123.523 45.5585 124.355C46.7851 125.962 46.0628 128.208 45.2265 130.808C44.4617 133.185 43.5946 135.88 44.5349 137.322C45.1037 138.194 46.4304 138.733 48.4801 138.927C54.1162 139.459 57.6868 135.538 60.8365 132.078C63.2364 129.441 65.4963 126.936 68.4091 127.009C70.2425 127.045 72.0003 128.094 73.7825 130.215C77.3578 134.468 82.034 136.7 86.9486 136.492C91.5084 136.3 95.6927 133.975 98.4293 130.11C103.953 122.309 109.217 124.486 116.504 127.497C118.699 128.403 121.184 129.43 124.034 130.357C128.869 131.927 133.179 131.147 136.17 128.159C139.59 124.742 140.573 118.924 138.737 112.974C138.2 111.239 137.654 108.74 139.092 107.067C140.795 105.085 144.044 105.611 147.807 106.221C154.471 107.3 159.764 107.701 162.209 102.339C164.592 97.1204 163.788 93.9385 163.144 91.383C162.707 89.6542 162.295 88.0198 163.262 86.4664C164.313 84.7789 166.656 83.7517 171.907 82.6773L173.411 82.3707C182.615 80.4946 188.696 79.2566 190.298 76.5684C190.698 75.8979 191.137 74.6923 190.335 71.9599C189.071 67.6579 187.2 65.0434 184.443 63.7332C180.228 61.7303 173.514 62.6794 164.491 66.554C159.838 68.551 155.141 72.3386 149.704 76.7261C141.214 83.5704 130.65 92.0919 114.801 98.3142C96.2695 105.59 74.5229 108.205 48.3251 106.31C46.9205 106.408 30.3086 107.773 28.3699 116.84C27.8456 119.294 28.013 121.039 28.8681 122.028C30.5599 123.986 35.2973 123.624 39.477 123.304C40.3733 123.235 41.2994 123.164 42.1861 123.115C42.3168 123.108 42.4441 123.105 42.5685 123.105ZM49.5147 142.193C49.0812 142.193 48.6374 142.173 48.1826 142.13C45.0785 141.835 43.0139 140.841 41.8713 139.089C40.09 136.357 41.2561 132.73 42.194 129.815C42.5622 128.67 43.1083 126.972 43.0218 126.36C42.9179 126.335 42.7141 126.306 42.3584 126.327C41.5062 126.373 40.6376 126.439 39.7178 126.51C34.5511 126.905 29.2072 127.314 26.4653 124.141C24.8915 122.321 24.4951 119.709 25.2538 116.162C27.7793 104.349 47.4107 103.138 48.2447 103.092C48.3116 103.089 48.3793 103.089 48.4462 103.095C106.649 107.331 130.382 88.1893 147.712 74.2133C153.333 69.6799 158.187 65.7641 163.243 63.5947C173.278 59.2868 180.658 58.3804 185.801 60.8239C189.439 62.5542 191.851 65.8009 193.391 71.0461C194.262 74.0114 194.143 76.3592 193.03 78.2265C190.703 82.1276 184.433 83.4053 174.043 85.5232L172.541 85.8297C168.649 86.6256 166.437 87.4155 165.962 88.1775C165.733 88.5444 165.917 89.3329 166.234 90.5901C166.921 93.3136 167.959 97.4299 165.106 103.685C161.452 111.689 152.937 110.309 147.302 109.396C145.207 109.058 142.041 108.542 141.501 109.173C141.482 109.194 141.068 109.713 141.78 112.018C144.006 119.226 142.747 126.114 138.412 130.445C134.592 134.264 128.994 135.346 123.055 133.417C120.089 132.454 117.543 131.401 115.296 130.473C108.07 127.486 105.08 126.25 101.024 131.978C97.7117 136.657 92.6296 139.472 87.0816 139.705C81.1598 139.952 75.5756 137.321 71.351 132.294C70.2102 130.938 69.1991 130.242 68.3454 130.224C68.3351 130.224 68.3242 130.224 68.3131 130.224C66.852 130.224 65.0706 132.182 63.1845 134.253C60.1048 137.637 55.9582 142.193 49.5147 142.193Z" fill="#6D184E"/>
<path d="M118.114 112.075C143.89 101.207 164.44 84.567 174.918 64.0009C163.274 38.6056 137.987 20.8795 108.54 20.4005C67.6307 19.7363 33.596 52.8897 32.8826 94.1587C32.7599 101.27 33.6214 108.155 35.3309 114.695C58.5175 126.536 88.3185 124.634 118.114 112.075Z" fill="#F9A332"/>
<path d="M118.679 21.2598H118.678H118.679ZM118.602 21.2489C118.601 21.2489 118.601 21.2474 118.599 21.2474C118.601 21.2474 118.601 21.2489 118.602 21.2489ZM118.562 21.2427C118.561 21.2427 118.562 21.2427 118.561 21.2412L118.562 21.2427ZM118.525 21.2365C118.524 21.2365 118.522 21.2365 118.519 21.235C118.522 21.2365 118.524 21.2365 118.525 21.2365ZM118.484 21.2303H118.482H118.484ZM118.367 21.2132C118.365 21.2117 118.365 21.2117 118.364 21.2117C118.365 21.2117 118.365 21.2117 118.367 21.2132ZM118.175 21.1838C118.173 21.1838 118.172 21.1838 118.17 21.1838C118.172 21.1838 118.173 21.1838 118.175 21.1838ZM118.141 21.1791C118.136 21.1791 118.133 21.1776 118.13 21.1776C118.133 21.1776 118.136 21.1791 118.141 21.1791ZM118.102 21.1729C118.098 21.1729 118.093 21.1714 118.09 21.1714C118.095 21.1729 118.096 21.1729 118.102 21.1729ZM118.067 21.1682C118.059 21.1667 118.055 21.1667 118.047 21.1652C118.053 21.1667 118.061 21.1667 118.067 21.1682ZM118.029 21.1621C118.021 21.1621 118.015 21.1605 118.007 21.1589C118.015 21.1605 118.019 21.1605 118.029 21.1621ZM117.987 21.1558C117.979 21.1558 117.975 21.1543 117.967 21.1543C117.973 21.1543 117.979 21.1558 117.987 21.1558ZM117.946 21.1512C117.938 21.1496 117.935 21.1496 117.927 21.1481C117.933 21.1481 117.938 21.1496 117.946 21.1512ZM117.907 21.145C117.899 21.1434 117.892 21.1434 117.884 21.1419C117.892 21.1434 117.898 21.1434 117.907 21.145ZM117.866 21.1388C117.859 21.1388 117.852 21.1372 117.844 21.1357C117.853 21.1372 117.858 21.1388 117.866 21.1388ZM117.826 21.1326C117.82 21.1326 117.812 21.131 117.806 21.131C117.812 21.131 117.82 21.1326 117.826 21.1326ZM117.784 21.1279C117.776 21.1264 117.772 21.1264 117.766 21.1248C117.772 21.1264 117.778 21.1264 117.784 21.1279ZM117.744 21.1217C117.736 21.1202 117.727 21.1202 117.72 21.1186C117.729 21.1202 117.735 21.1202 117.744 21.1217ZM117.704 21.1171C117.693 21.114 117.684 21.114 117.672 21.1109C117.684 21.114 117.693 21.114 117.704 21.1171ZM117.664 21.1109C117.65 21.1093 117.64 21.1078 117.626 21.1046C117.638 21.1062 117.652 21.1093 117.664 21.1109ZM117.617 21.1046C117.604 21.1015 117.595 21.1015 117.583 21.0984C117.593 21.1 117.606 21.1031 117.617 21.1046ZM117.572 21.0984C117.563 21.0969 117.553 21.0953 117.541 21.0938C117.553 21.0953 117.561 21.0969 117.572 21.0984ZM117.529 21.0922C117.521 21.0907 117.51 21.0891 117.501 21.0876C117.512 21.0891 117.52 21.0907 117.529 21.0922ZM117.486 21.086C117.477 21.0845 117.47 21.0829 117.461 21.0829C117.469 21.0829 117.478 21.0845 117.486 21.086ZM117.446 21.0798C117.437 21.0783 117.429 21.0783 117.42 21.0767C117.429 21.0783 117.437 21.0783 117.446 21.0798ZM117.406 21.0752C117.397 21.0736 117.386 21.0721 117.378 21.0705C117.386 21.0721 117.398 21.0736 117.406 21.0752ZM117.367 21.069C117.357 21.0674 117.347 21.0674 117.337 21.0659C117.347 21.0674 117.357 21.0674 117.367 21.069ZM117.324 21.0643C117.315 21.0628 117.306 21.0612 117.295 21.0597C117.306 21.0612 117.315 21.0628 117.324 21.0643ZM117.284 21.0581C117.274 21.0566 117.264 21.055 117.255 21.0535C117.264 21.055 117.274 21.0566 117.284 21.0581ZM117.243 21.0519C117.232 21.0519 117.221 21.0504 117.212 21.0488C117.221 21.0504 117.234 21.0519 117.243 21.0519ZM117.203 21.0472C117.192 21.0457 117.183 21.0441 117.169 21.0426C117.181 21.0441 117.192 21.0457 117.203 21.0472ZM117.161 21.0411C117.148 21.0395 117.137 21.0379 117.123 21.0364C117.135 21.0379 117.149 21.0395 117.161 21.0411ZM117.123 21.0364C117.109 21.0348 117.095 21.0333 117.081 21.0317C117.095 21.0333 117.108 21.0348 117.123 21.0364ZM117.081 21.0317C116.997 21.0193 116.915 21.0085 116.831 20.9992C116.914 21.0085 116.997 21.0193 117.081 21.0317ZM116.828 20.9976C116.814 20.9961 116.803 20.9945 116.789 20.993C116.8 20.9945 116.815 20.9961 116.828 20.9976ZM116.786 20.993C116.772 20.9914 116.76 20.9899 116.746 20.9883C116.76 20.9899 116.774 20.9914 116.786 20.993ZM116.746 20.9868C116.717 20.9837 116.691 20.9805 116.663 20.9774C116.691 20.9805 116.717 20.9837 116.746 20.9868ZM116.66 20.9774C116.648 20.9743 116.635 20.9728 116.62 20.9712C116.635 20.9728 116.646 20.9743 116.66 20.9774ZM116.62 20.9712C116.606 20.9697 116.594 20.9681 116.58 20.9666C116.592 20.9681 116.608 20.9697 116.62 20.9712ZM116.579 20.9666C114.301 20.6811 111.994 20.4996 109.66 20.4267C111.994 20.4996 114.303 20.6811 116.579 20.9666ZM109.658 20.4267C109.644 20.4267 109.631 20.4267 109.617 20.4267C109.63 20.4267 109.645 20.4267 109.658 20.4267ZM109.615 20.4267C109.601 20.4252 109.588 20.4252 109.574 20.4252C109.588 20.4252 109.602 20.4252 109.615 20.4267ZM109.573 20.4252C109.559 20.4236 109.547 20.4236 109.533 20.4236C109.544 20.4236 109.561 20.4236 109.573 20.4252ZM109.528 20.4236C109.517 20.4236 109.502 20.4221 109.491 20.4221C109.503 20.4221 109.516 20.4236 109.528 20.4236ZM109.485 20.4221C109.474 20.4221 109.459 20.4221 109.448 20.4205C109.459 20.4221 109.473 20.4221 109.485 20.4221ZM109.442 20.4205C109.428 20.4205 109.418 20.4205 109.403 20.4205C109.417 20.4205 109.429 20.4205 109.442 20.4205ZM109.4 20.4205C109.388 20.419 109.374 20.419 109.361 20.419C109.373 20.419 109.389 20.419 109.4 20.4205ZM109.357 20.419C109.271 20.4159 109.187 20.4143 109.101 20.4128C109.187 20.4143 109.271 20.4159 109.357 20.419ZM109.096 20.4112C109.083 20.4112 109.07 20.4112 109.057 20.4112C109.071 20.4112 109.083 20.4112 109.096 20.4112ZM109.055 20.4112C109.04 20.4112 109.031 20.4097 109.016 20.4097C109.03 20.4097 109.042 20.4112 109.055 20.4112ZM109.008 20.4097C108.997 20.4097 108.985 20.4097 108.974 20.4097C108.986 20.4097 108.996 20.4097 109.008 20.4097ZM108.964 20.4097C108.954 20.4081 108.943 20.4081 108.932 20.4081C108.942 20.4081 108.954 20.4081 108.964 20.4097ZM108.921 20.4081C108.911 20.4081 108.901 20.4081 108.891 20.4081C108.9 20.4081 108.911 20.4081 108.921 20.4081ZM108.878 20.4066C108.868 20.4066 108.859 20.4066 108.851 20.4066C108.861 20.4066 108.868 20.4066 108.878 20.4066ZM108.834 20.4066C108.825 20.4066 108.817 20.4066 108.808 20.405C108.817 20.4066 108.826 20.4066 108.834 20.4066ZM108.792 20.405C108.784 20.405 108.774 20.405 108.765 20.405C108.773 20.405 108.784 20.405 108.792 20.405ZM108.751 20.405C108.742 20.405 108.732 20.4035 108.723 20.4035C108.733 20.4035 108.74 20.405 108.751 20.405ZM108.708 20.4035C108.699 20.4035 108.691 20.4035 108.683 20.4035C108.691 20.4035 108.699 20.4035 108.708 20.4035ZM108.666 20.4035C108.657 20.4035 108.648 20.4035 108.64 20.4019C108.647 20.4035 108.657 20.4035 108.666 20.4035ZM108.624 20.4019C108.613 20.4019 108.602 20.4019 108.592 20.4019C108.603 20.4019 108.612 20.4019 108.624 20.4019ZM108.582 20.4019C108.568 20.4019 108.555 20.4019 108.54 20.4003C108.553 20.4019 108.569 20.4019 108.582 20.4019ZM108.54 20.4003C108.503 20.4003 108.464 20.4004 108.427 20.3988C108.465 20.4004 108.502 20.4003 108.54 20.4003ZM106.76 20.3926C106.857 20.3926 106.955 20.391 107.053 20.391C107.063 20.391 107.075 20.391 107.085 20.391C106.976 20.3926 106.869 20.3926 106.76 20.3926Z" fill="#FFF6AF"/>
<path d="M40.3584 62.7522C52.3766 37.9236 77.5782 20.7321 106.481 20.4001C106.574 20.397 106.666 20.3954 106.76 20.3939C106.869 20.3939 106.976 20.3923 107.086 20.3923C107.093 20.3923 107.1 20.3923 107.108 20.3923C107.188 20.3923 107.267 20.3923 107.348 20.3923C107.706 20.3923 108.067 20.3954 108.427 20.4001C108.464 20.4001 108.503 20.4016 108.54 20.4016C108.555 20.4016 108.568 20.4016 108.582 20.4032C108.585 20.4032 108.588 20.4032 108.591 20.4032C108.602 20.4032 108.613 20.4032 108.624 20.4032C108.629 20.4032 108.634 20.4032 108.639 20.4032C108.648 20.4032 108.657 20.4032 108.665 20.4047C108.67 20.4047 108.677 20.4047 108.683 20.4047C108.691 20.4047 108.698 20.4047 108.708 20.4047C108.713 20.4047 108.718 20.4047 108.723 20.4047C108.732 20.4047 108.742 20.4047 108.75 20.4063C108.756 20.4063 108.76 20.4063 108.765 20.4063C108.774 20.4063 108.784 20.4063 108.792 20.4063C108.798 20.4063 108.803 20.4063 108.808 20.4063C108.817 20.4063 108.825 20.4063 108.834 20.4078C108.839 20.4078 108.846 20.4078 108.85 20.4078C108.859 20.4078 108.869 20.4078 108.878 20.4078C108.881 20.4078 108.887 20.4078 108.891 20.4078C108.901 20.4078 108.911 20.4094 108.921 20.4094C108.927 20.4094 108.927 20.4094 108.932 20.4094C108.943 20.4094 108.953 20.4094 108.965 20.4094C108.968 20.4094 108.971 20.4094 108.974 20.4094C108.985 20.4109 108.997 20.4109 109.008 20.4109C109.009 20.4109 109.015 20.4109 109.016 20.4109C109.03 20.4109 109.04 20.4109 109.055 20.4125H109.057C109.07 20.4125 109.083 20.4125 109.096 20.4125C109.097 20.4125 109.099 20.4125 109.101 20.4125C109.187 20.4156 109.271 20.4171 109.357 20.4202C109.359 20.4202 109.359 20.4202 109.361 20.4202C109.374 20.4202 109.388 20.4202 109.4 20.4202C109.402 20.4202 109.402 20.4202 109.404 20.4202C109.418 20.4218 109.428 20.4218 109.442 20.4218C109.444 20.4218 109.446 20.4218 109.448 20.4218C109.459 20.4218 109.474 20.4233 109.485 20.4233C109.486 20.4233 109.489 20.4233 109.491 20.4233C109.502 20.4233 109.517 20.4233 109.528 20.4249C109.531 20.4249 109.529 20.4249 109.533 20.4249C109.547 20.4249 109.559 20.4249 109.573 20.4264C109.574 20.4264 109.572 20.4249 109.574 20.4264C109.588 20.4264 109.601 20.4264 109.615 20.4264H109.617C109.631 20.428 109.644 20.428 109.659 20.428C109.66 20.428 109.658 20.428 109.66 20.428C111.994 20.5009 114.301 20.6824 116.578 20.9678H116.58C116.594 20.9694 116.606 20.971 116.62 20.9725C116.635 20.9741 116.647 20.9756 116.661 20.9772L116.664 20.9787C116.691 20.9818 116.717 20.9849 116.746 20.988C116.76 20.9911 116.772 20.9911 116.786 20.9942C116.787 20.9942 116.787 20.9942 116.789 20.9942C116.803 20.9958 116.814 20.9973 116.827 20.9989C116.829 20.9989 116.829 20.9989 116.83 20.9989C116.915 21.0097 116.998 21.0206 117.081 21.0315C117.095 21.0346 117.109 21.0361 117.123 21.0377C117.136 21.0392 117.147 21.0408 117.161 21.0423C117.163 21.0423 117.169 21.0439 117.17 21.0439C117.183 21.0454 117.192 21.047 117.204 21.0485C117.207 21.0485 117.207 21.0485 117.212 21.0501C117.221 21.0501 117.232 21.0516 117.243 21.0532C117.247 21.0547 117.25 21.0547 117.255 21.0547C117.264 21.0563 117.273 21.0578 117.284 21.0594C117.287 21.0594 117.292 21.0609 117.295 21.0609C117.307 21.0625 117.315 21.064 117.324 21.064C117.327 21.0656 117.333 21.0656 117.336 21.0656C117.347 21.0671 117.356 21.0687 117.367 21.0702C117.37 21.0702 117.375 21.0718 117.378 21.0718C117.386 21.0733 117.396 21.0749 117.406 21.0764C117.41 21.0764 117.415 21.0764 117.419 21.078C117.429 21.0795 117.436 21.0796 117.446 21.0811C117.452 21.0827 117.455 21.0826 117.461 21.0826C117.47 21.0842 117.476 21.0857 117.486 21.0873C117.49 21.0873 117.496 21.0889 117.502 21.0889C117.51 21.0904 117.521 21.0919 117.529 21.0919C117.532 21.0935 117.539 21.0935 117.542 21.0951C117.553 21.0966 117.562 21.0966 117.573 21.0982C117.576 21.0997 117.579 21.0997 117.582 21.0997C117.595 21.1013 117.605 21.1028 117.616 21.1044C117.619 21.1044 117.624 21.1059 117.625 21.1059C117.639 21.1075 117.65 21.109 117.664 21.1121C117.667 21.1121 117.669 21.1121 117.672 21.1121C117.684 21.1137 117.693 21.1152 117.705 21.1168C117.708 21.1183 117.715 21.1183 117.719 21.1199C117.727 21.1199 117.736 21.1214 117.745 21.123C117.752 21.1245 117.759 21.1245 117.765 21.1261C117.773 21.1261 117.778 21.1276 117.784 21.1276C117.79 21.1292 117.799 21.1307 117.805 21.1307C117.813 21.1323 117.819 21.1338 117.825 21.1338C117.832 21.1354 117.838 21.1354 117.845 21.1369C117.852 21.1385 117.859 21.1385 117.865 21.14C117.871 21.1416 117.879 21.1416 117.884 21.1432C117.891 21.1432 117.899 21.1447 117.907 21.1462C117.913 21.1462 117.921 21.1478 117.927 21.1494C117.935 21.1494 117.938 21.1509 117.945 21.1509C117.951 21.1525 117.961 21.154 117.967 21.154C117.975 21.1556 117.979 21.1571 117.987 21.1571C117.993 21.1587 118.001 21.1602 118.008 21.1602C118.015 21.1618 118.021 21.1618 118.028 21.1633C118.034 21.1649 118.041 21.1649 118.047 21.1664C118.054 21.168 118.059 21.168 118.067 21.1695C118.073 21.1695 118.084 21.1711 118.09 21.1726C118.093 21.1726 118.098 21.1742 118.102 21.1742C118.111 21.1757 118.121 21.1773 118.13 21.1788C118.133 21.1788 118.136 21.1788 118.141 21.1804C118.15 21.1819 118.161 21.1835 118.17 21.185C118.171 21.185 118.173 21.185 118.174 21.185C118.236 21.1943 118.302 21.2037 118.364 21.213C118.365 21.213 118.365 21.213 118.367 21.213C118.393 21.2176 118.419 21.2207 118.445 21.2254C118.457 21.2269 118.47 21.2285 118.482 21.2316H118.485C118.496 21.2331 118.508 21.2347 118.52 21.2362C118.522 21.2362 118.524 21.2378 118.525 21.2378C118.537 21.2393 118.547 21.2409 118.56 21.2424C118.562 21.2424 118.56 21.2424 118.562 21.2424C118.576 21.2455 118.585 21.2471 118.599 21.2486C118.6 21.2486 118.6 21.2486 118.602 21.2486C118.614 21.2517 118.628 21.2533 118.639 21.2548C118.653 21.2564 118.665 21.2595 118.677 21.261H118.679C141.971 24.8601 161.705 39.3508 172.622 59.4153C159.949 41.5598 140.23 29.1448 117.569 26.2919C117.089 29.0548 112.565 31.222 107.052 31.222C101.637 31.222 97.1769 29.1308 96.5662 26.4377C83.2025 28.3195 70.8453 33.5675 60.3946 41.3085C60.4133 41.2728 60.4322 41.2387 60.4504 41.203V41.2046C60.341 41.3054 60.2323 41.4078 60.1238 41.5102C52.3443 47.3229 45.631 54.5256 40.3584 62.7522Z" fill="#FCD199"/>
<path d="M118.112 112.075C118.136 112.065 118.159 112.056 118.183 112.045C118.159 112.056 118.135 112.065 118.112 112.075ZM118.202 112.037C118.22 112.03 118.235 112.024 118.252 112.016C118.234 112.024 118.221 112.03 118.202 112.037ZM118.275 112.006C118.291 111.999 118.311 111.992 118.326 111.984C118.31 111.992 118.292 111.999 118.275 112.006ZM118.344 111.977C118.368 111.967 118.388 111.958 118.412 111.948C118.39 111.958 118.367 111.968 118.344 111.977ZM118.415 111.947C118.439 111.937 118.463 111.927 118.489 111.916C118.464 111.927 118.439 111.937 118.415 111.947ZM118.493 111.914C118.514 111.905 118.538 111.896 118.559 111.885C118.537 111.896 118.515 111.905 118.493 111.914ZM118.572 111.88C118.594 111.872 118.612 111.864 118.634 111.854C118.613 111.863 118.593 111.872 118.572 111.88ZM118.644 111.849C118.667 111.84 118.69 111.831 118.713 111.82C118.691 111.831 118.667 111.84 118.644 111.849ZM118.715 111.819C118.767 111.798 118.814 111.777 118.864 111.755C118.815 111.777 118.766 111.798 118.715 111.819ZM118.87 111.753C118.892 111.744 118.915 111.734 118.937 111.724C118.914 111.734 118.893 111.744 118.87 111.753ZM118.944 111.721C119.044 111.679 119.142 111.637 119.241 111.595C119.142 111.637 119.044 111.679 118.944 111.721ZM119.243 111.592C119.468 111.496 119.69 111.4 119.915 111.303C119.691 111.4 119.467 111.497 119.243 111.592ZM119.918 111.301C120.017 111.257 120.114 111.215 120.213 111.172C120.115 111.214 120.016 111.258 119.918 111.301ZM120.216 111.17C120.314 111.127 120.412 111.084 120.511 111.041C120.412 111.084 120.314 111.127 120.216 111.17ZM120.517 111.038C120.613 110.995 120.712 110.951 120.809 110.909C120.711 110.952 120.615 110.994 120.517 111.038ZM120.816 110.906C120.837 110.896 120.86 110.886 120.882 110.876C120.861 110.886 120.837 110.896 120.816 110.906ZM120.888 110.874C120.959 110.842 121.034 110.809 121.106 110.777C121.034 110.809 120.96 110.842 120.888 110.874ZM121.115 110.773C121.137 110.762 121.155 110.755 121.176 110.745C121.157 110.754 121.135 110.763 121.115 110.773ZM121.188 110.74C121.212 110.729 121.233 110.72 121.257 110.71C121.233 110.72 121.213 110.729 121.188 110.74ZM121.257 110.709C121.305 110.687 121.354 110.665 121.402 110.645C121.354 110.665 121.305 110.687 121.257 110.709ZM121.414 110.639C121.434 110.63 121.454 110.621 121.473 110.613C121.454 110.621 121.434 110.63 121.414 110.639ZM121.486 110.607C121.506 110.597 121.525 110.589 121.545 110.58C121.527 110.589 121.505 110.597 121.486 110.607ZM121.559 110.574C121.606 110.553 121.651 110.532 121.697 110.512C121.651 110.532 121.606 110.553 121.559 110.574ZM121.718 110.502C121.734 110.494 121.75 110.487 121.767 110.48C121.751 110.487 121.733 110.495 121.718 110.502ZM121.789 110.47C121.804 110.463 121.82 110.456 121.836 110.449C121.819 110.456 121.805 110.462 121.789 110.47ZM121.858 110.438C121.876 110.43 121.895 110.422 121.913 110.414C121.896 110.421 121.875 110.431 121.858 110.438ZM121.927 110.407C121.948 110.397 121.974 110.386 121.995 110.377C121.973 110.387 121.949 110.397 121.927 110.407ZM122.012 110.369C122.03 110.361 122.045 110.354 122.063 110.347C122.046 110.354 122.029 110.362 122.012 110.369ZM122.088 110.334C122.101 110.328 122.115 110.322 122.129 110.316C122.115 110.322 122.101 110.328 122.088 110.334ZM122.16 110.302C122.172 110.297 122.183 110.291 122.196 110.286C122.183 110.291 122.172 110.296 122.16 110.302ZM122.227 110.271C122.237 110.266 122.25 110.261 122.261 110.256C122.249 110.261 122.238 110.266 122.227 110.271ZM122.326 110.226C122.336 110.221 122.346 110.218 122.355 110.213C122.347 110.217 122.335 110.222 122.326 110.226ZM122.394 110.195C122.402 110.192 122.412 110.187 122.419 110.183C122.411 110.187 122.402 110.191 122.394 110.195ZM122.46 110.164C122.468 110.161 122.477 110.157 122.484 110.154C122.477 110.157 122.468 110.161 122.46 110.164ZM122.528 110.133C122.53 110.133 122.532 110.132 122.533 110.131C122.532 110.132 122.53 110.133 122.528 110.133ZM122.703 110.053C122.706 110.052 122.708 110.052 122.711 110.05C122.709 110.051 122.706 110.052 122.703 110.053ZM122.767 110.024L122.769 110.023L122.767 110.024Z" fill="#5B6D54"/>
<path d="M70.3886 122.608C64.6857 122.608 59.1322 122.089 53.7887 121.026C51.1519 120.369 48.5688 119.577 46.0509 118.637C41.4093 116.904 38.0849 112.75 37.3303 107.815C36.6914 103.634 36.3939 99.3412 36.4695 94.964C36.8337 73.8839 45.8966 54.9282 60.1244 41.5095C60.2148 41.4412 60.3045 41.3743 60.395 41.3074C55.002 51.4547 51.8499 62.988 51.6383 75.2386C51.6343 75.4691 51.6311 75.6996 51.6295 75.9301C51.5218 88.7826 60.5791 99.825 73.0977 102.221C78.2673 103.21 83.6281 103.693 89.1304 103.693C104.326 103.693 120.599 100.011 136.869 93.154C148.416 88.2859 158.909 82.2553 167.922 75.2371C157.337 89.4955 141.607 101.35 122.77 110.022L122.767 110.024C122.749 110.032 122.731 110.041 122.711 110.049C122.708 110.051 122.707 110.052 122.704 110.052C122.646 110.079 122.591 110.105 122.533 110.13C122.532 110.132 122.53 110.133 122.529 110.133C122.513 110.14 122.499 110.146 122.485 110.153C122.477 110.156 122.468 110.16 122.461 110.163C122.447 110.17 122.434 110.176 122.42 110.183C122.413 110.186 122.402 110.191 122.394 110.194C122.379 110.2 122.37 110.206 122.355 110.211C122.346 110.217 122.337 110.22 122.327 110.226C122.305 110.234 122.284 110.246 122.261 110.255C122.25 110.26 122.238 110.265 122.227 110.271C122.217 110.275 122.206 110.28 122.196 110.285C122.183 110.291 122.172 110.295 122.161 110.301C122.151 110.305 122.14 110.31 122.13 110.315C122.116 110.321 122.102 110.328 122.089 110.334C122.08 110.338 122.072 110.341 122.063 110.347C122.045 110.354 122.03 110.361 122.013 110.368C122.006 110.371 122.001 110.374 121.996 110.376C121.975 110.385 121.949 110.396 121.928 110.408C121.922 110.409 121.92 110.411 121.914 110.412C121.896 110.422 121.877 110.429 121.859 110.438C121.852 110.44 121.843 110.445 121.836 110.449C121.821 110.456 121.805 110.463 121.788 110.47C121.781 110.473 121.774 110.476 121.767 110.479C121.75 110.486 121.735 110.493 121.718 110.502C121.712 110.504 121.704 110.507 121.697 110.512C121.65 110.532 121.605 110.553 121.56 110.573C121.554 110.576 121.55 110.577 121.546 110.58C121.526 110.588 121.508 110.597 121.487 110.606C121.482 110.608 121.478 110.61 121.474 110.611C121.454 110.62 121.434 110.63 121.416 110.638C121.41 110.64 121.408 110.641 121.403 110.644C121.355 110.665 121.306 110.687 121.258 110.708H121.257C121.234 110.719 121.213 110.728 121.189 110.739C121.186 110.741 121.18 110.742 121.176 110.745C121.155 110.754 121.138 110.762 121.116 110.772C121.111 110.773 121.11 110.775 121.106 110.776C121.035 110.808 120.96 110.842 120.888 110.873C120.886 110.874 120.886 110.874 120.883 110.876C120.86 110.884 120.838 110.896 120.817 110.904C120.814 110.906 120.812 110.907 120.81 110.907C120.712 110.951 120.613 110.994 120.518 111.037C120.516 111.038 120.512 111.04 120.512 111.041C120.413 111.084 120.316 111.126 120.217 111.169C120.216 111.17 120.216 111.17 120.214 111.17C120.114 111.215 120.018 111.256 119.918 111.3C119.917 111.301 119.915 111.301 119.915 111.301C119.691 111.4 119.468 111.495 119.244 111.592L119.241 111.593C119.142 111.636 119.043 111.678 118.945 111.721C118.942 111.721 118.941 111.723 118.938 111.724C118.915 111.734 118.893 111.742 118.87 111.752C118.869 111.754 118.866 111.755 118.864 111.755C118.814 111.777 118.767 111.797 118.716 111.818C118.716 111.819 118.716 111.819 118.713 111.819C118.691 111.829 118.668 111.839 118.644 111.849C118.641 111.851 118.639 111.852 118.634 111.853C118.613 111.863 118.595 111.871 118.572 111.879C118.568 111.881 118.564 111.883 118.56 111.885C118.538 111.895 118.515 111.905 118.493 111.913C118.492 111.913 118.491 111.915 118.489 111.915C118.464 111.926 118.44 111.936 118.416 111.946C118.413 111.947 118.413 111.947 118.413 111.947C118.389 111.957 118.369 111.966 118.345 111.976C118.338 111.979 118.333 111.982 118.327 111.983C118.311 111.99 118.292 111.999 118.276 112.006C118.269 112.009 118.261 112.011 118.254 112.016C118.235 112.023 118.22 112.029 118.203 112.037C118.196 112.038 118.189 112.043 118.183 112.044C118.159 112.056 118.136 112.064 118.113 112.074C101.846 118.931 85.581 122.608 70.3886 122.608Z" fill="#BF6700"/>
<path d="M60.124 41.5087C60.2325 41.4062 60.3412 41.3051 60.4506 41.204V41.2026C60.4324 41.2382 60.4136 41.2723 60.3947 41.3079C60.3042 41.3749 60.2145 41.4418 60.124 41.5087Z" fill="#D19982"/>
<path d="M70.7931 49.101C70.022 51.5468 68.69 53.3369 67.8417 53.0653C66.9936 52.7923 66.9306 50.5561 67.7016 48.1089C68.4719 45.6631 69.8048 43.8731 70.6531 44.1447C71.4478 44.4008 71.5627 46.3851 70.9151 48.6915L70.7931 49.101Z" fill="#FCE69F"/>
<path d="M83.381 50.6767C82.9459 53.2071 81.8663 55.1622 80.989 55.0085C80.1125 54.8549 79.7489 52.6471 80.184 50.1182C80.6199 47.5878 81.6995 45.6328 82.576 45.7864C83.3983 45.9302 83.7782 47.881 83.447 50.255L83.381 50.6767Z" fill="#FCE69F"/>
<path d="M99.6312 50.1686C99.9855 52.7114 99.5523 54.9064 98.6705 55.0307C97.7888 55.1564 96.7728 53.1666 96.4185 50.6238C96.0641 48.0824 96.4988 45.8873 97.3791 45.763C98.2055 45.6457 99.1605 47.3842 99.5661 49.7469L99.6312 50.1686Z" fill="#FCE69F"/>
<path d="M113.221 44.9114C114.567 47.0895 115.053 49.2733 114.298 49.7485C113.544 50.2236 111.813 48.8209 110.468 46.6428C109.12 44.4647 108.635 42.2809 109.389 41.8057C110.097 41.3605 111.669 42.5598 112.989 44.5529L113.221 44.9114Z" fill="#FCE69F"/>
<path d="M123.643 36.1929C125.449 38.0039 126.415 40.0179 125.787 40.6549C125.158 41.2905 123.159 40.3239 121.355 38.5129C119.551 36.7019 118.583 34.6879 119.211 34.0509C119.8 33.455 121.602 34.2598 123.34 35.8957L123.643 36.1929Z" fill="#FCE69F"/>
<path d="M72.4691 90.6176C71.622 90.6176 70.9375 89.926 70.9375 89.0725C70.9375 88.218 71.622 87.5263 72.4691 87.5263C73.3151 87.5263 74.0007 88.218 74.0007 89.0725C74.0007 89.926 73.3151 90.6176 72.4691 90.6176Z" fill="#BF6700"/>
<path d="M97.1795 75.9347C96.3336 75.9347 95.6475 75.2424 95.6475 74.3891C95.6475 73.5346 96.3336 72.8424 97.1795 72.8424C98.0253 72.8424 98.7115 73.5346 98.7115 74.3891C98.7115 75.2424 98.0253 75.9347 97.1795 75.9347Z" fill="#BF6700"/>
<path d="M102.243 92.0194C101.396 92.0194 100.711 91.3274 100.711 90.4747C100.711 89.6209 101.396 88.9289 102.243 88.9289C103.088 88.9289 103.775 89.6209 103.775 90.4747C103.775 91.3274 103.088 92.0194 102.243 92.0194Z" fill="#E99335"/>
<path d="M117.028 73.1C116.181 73.1 115.496 72.408 115.496 71.5538C115.496 70.7009 116.181 70.0089 117.028 70.0089C117.874 70.0089 118.56 70.7009 118.56 71.5538C118.56 72.408 117.874 73.1 117.028 73.1Z" fill="#E99335"/>
<path d="M132.844 85.7493C131.998 85.7493 131.312 85.0571 131.312 84.2047C131.312 83.3499 131.998 82.6589 132.844 82.6589C133.691 82.6589 134.377 83.3499 134.377 84.2047C134.377 85.0571 133.691 85.7493 132.844 85.7493Z" fill="#BF6700"/>
<path d="M134.893 62.3628C134.047 62.3628 133.361 61.671 133.361 60.8177C133.361 59.9631 134.047 59.2712 134.893 59.2712C135.74 59.2712 136.425 59.9631 136.425 60.8177C136.425 61.671 135.74 62.3628 134.893 62.3628Z" fill="#BF6700"/>
<path d="M145.906 49.118C145.061 49.118 144.374 48.4265 144.374 47.5734C144.374 46.7202 145.061 46.0274 145.906 46.0274C146.752 46.0274 147.439 46.7202 147.439 47.5734C147.439 48.4265 146.752 49.118 145.906 49.118Z" fill="#BF6700"/>
<path d="M72.7752 74.5659C71.9294 74.5659 71.2432 73.8739 71.2432 73.0197C71.2432 72.1668 71.9294 71.4748 72.7752 71.4748C73.6218 71.4748 74.308 72.1668 74.308 73.0197C74.308 73.8739 73.6218 74.5659 72.7752 74.5659Z" fill="#E99335"/>
<path d="M160.935 63.6754C160.089 63.6754 159.403 62.9839 159.403 62.1306C159.403 61.2773 160.089 60.5845 160.935 60.5845C161.782 60.5845 162.467 61.2773 162.467 62.1306C162.467 62.9839 161.782 63.6754 160.935 63.6754Z" fill="#BF6700"/>
<path d="M151 80.5545C150.155 80.5545 149.468 79.8617 149.468 79.0084C149.468 78.1551 150.155 77.4635 151 77.4635C151.846 77.4635 152.532 78.1551 152.532 79.0084C152.532 79.8617 151.846 80.5545 151 80.5545Z" fill="#E99335"/>
<path d="M107.325 21.9994C67.7339 21.9994 35.1687 54.1356 34.4764 94.1877C34.4031 98.4364 34.6919 102.704 35.3356 106.871C35.9996 111.173 38.9047 114.781 42.9184 116.288C63.7515 124.106 90.2375 122.082 117.498 110.59C140.645 100.833 158.618 86.8735 169.471 70.2193C171.951 66.4176 172.057 61.4607 169.744 57.5933C156.669 35.7212 133.779 22.4184 108.515 22.0088C108.118 22.0026 107.72 21.9994 107.325 21.9994ZM70.3517 124.223C60.1007 124.223 50.5295 122.576 41.8065 119.302C36.7133 117.391 33.0266 112.816 32.1852 107.365C31.514 103.018 31.2124 98.5646 31.289 94.1314C31.6413 73.7458 39.8953 54.6624 54.5305 40.3982C69.1619 26.1388 88.3522 18.4541 108.566 18.7933C121.666 19.0059 134.534 22.6419 145.78 29.3074C156.7 35.7805 165.931 44.9878 172.474 55.9317C175.417 60.8542 175.284 67.1554 172.136 71.9857C160.932 89.1777 142.463 103.553 118.727 113.557C104.977 119.354 91.4595 122.828 78.5504 123.882C75.7729 124.109 73.0387 124.223 70.3517 124.223Z" fill="#6D184E"/>
<path d="M153.084 171.639C152.167 176.636 147.406 179.935 142.451 179.009C137.499 178.082 134.227 173.279 135.147 168.282C135.686 165.346 136.853 166.012 138.756 166.679C140.092 167.148 141.789 167.615 143.886 166.838C149.875 164.619 154.003 166.642 153.084 171.639Z" fill="#FCAF15"/>
<path d="M142.436 179.006H142.435H142.436ZM148.538 172.651C148.761 172.091 148.932 171.5 149.046 170.883C149.471 168.577 148.809 166.914 147.395 165.999C147.708 165.969 148.01 165.955 148.302 165.955C151.728 165.955 153.732 167.985 153.094 171.583C153.298 170.434 153.224 169.45 152.928 168.633C151.89 170.243 150.331 171.724 148.538 172.651ZM153.088 171.621C153.088 171.619 153.089 171.617 153.089 171.614C153.089 171.617 153.088 171.618 153.088 171.621ZM153.092 171.603C153.092 171.597 153.093 171.591 153.094 171.585C153.093 171.591 153.092 171.597 153.092 171.603Z" fill="#FED78A"/>
<path d="M142.451 179.009C142.446 179.008 142.442 179.007 142.436 179.006C142.44 179.007 142.446 179.008 142.451 179.009ZM152.502 173.586C152.762 172.973 152.959 172.322 153.084 171.639C153.086 171.634 153.087 171.627 153.088 171.621C153.087 171.627 153.086 171.633 153.084 171.639C152.959 172.322 152.762 172.973 152.502 173.586Z" fill="#D18126"/>
<path d="M135.148 168.282C135.148 168.279 135.148 168.276 135.15 168.273C135.148 168.276 135.148 168.279 135.148 168.282Z" fill="#6D184E"/>
<path d="M142.436 179.006C137.491 178.072 134.229 173.274 135.147 168.282C135.147 168.28 135.148 168.277 135.148 168.274C135.43 166.754 135.879 166.206 136.514 166.121C137.431 169.378 139.936 172.865 143.46 173.525C143.881 173.604 144.3 173.641 144.72 173.641C146.04 173.641 147.342 173.269 148.538 172.651C147.204 175.991 144.031 178.238 140.477 178.392C141.093 178.663 141.746 178.875 142.436 179.006ZM153.089 171.614C153.09 171.611 153.091 171.607 153.091 171.603C153.091 171.607 153.09 171.611 153.089 171.614ZM153.095 171.585C153.095 171.585 153.095 171.584 153.095 171.583C153.095 171.584 153.095 171.585 153.095 171.585Z" fill="#D18126"/>
<path d="M144.184 179.165C147.807 179.141 151.085 176.932 152.502 173.586C151.085 176.933 147.807 179.142 144.184 179.165Z" fill="#D3B392"/>
<path d="M144.126 179.165C143.574 179.165 143.013 179.114 142.452 179.009C142.446 179.008 142.441 179.007 142.436 179.006H142.435C141.747 178.875 141.093 178.663 140.477 178.392C144.032 178.238 147.203 175.991 148.539 172.651C150.331 171.724 151.89 170.243 152.928 168.633C153.223 169.45 153.298 170.434 153.095 171.583C153.095 171.584 153.095 171.585 153.095 171.585C153.093 171.591 153.093 171.597 153.092 171.603C153.09 171.607 153.09 171.611 153.089 171.614C153.089 171.617 153.088 171.619 153.088 171.621C153.087 171.627 153.086 171.633 153.084 171.639C152.96 172.322 152.761 172.973 152.503 173.586C151.085 176.932 147.807 179.141 144.184 179.165C144.163 179.165 144.145 179.165 144.126 179.165Z" fill="#D29D78"/>
<path d="M136.925 167.754C136.867 167.906 136.789 168.163 136.713 168.576C136.347 170.571 136.772 172.589 137.91 174.262C139.049 175.933 140.765 177.057 142.742 177.428C144.72 177.797 146.72 177.369 148.378 176.22C150.036 175.072 151.15 173.34 151.517 171.346C151.696 170.368 151.722 169.043 150.825 168.278C149.665 167.291 147.217 167.318 144.435 168.348C141.578 169.407 139.314 168.59 137.815 168.05C137.531 167.947 137.171 167.817 136.925 167.754ZM144.138 180.775C143.482 180.775 142.82 180.714 142.159 180.59C139.347 180.063 136.904 178.463 135.283 176.083C133.661 173.703 133.056 170.829 133.578 167.989C133.782 166.883 134.163 165.528 135.317 164.858C136.512 164.163 137.774 164.62 138.889 165.022C140.204 165.495 141.564 165.986 143.336 165.33C147.308 163.858 150.786 164.037 152.881 165.821C154.495 167.195 155.123 169.366 154.651 171.933C154.13 174.772 152.542 177.236 150.184 178.871C148.377 180.123 146.283 180.775 144.138 180.775Z" fill="#6D184E"/>
<path d="M164.947 108.257C165.591 108.555 166.344 108.479 166.954 108.118C169.476 106.623 177.532 101.683 178.889 98.7696C180.401 95.5203 160.394 106.147 164.947 108.257Z" fill="#E5525F"/>
<path d="M113.501 222.457C73.1937 222.457 40.5186 218.608 40.5186 213.86C40.5186 209.113 73.1937 205.264 113.501 205.264C153.806 205.264 186.482 209.113 186.482 213.86C186.482 218.608 153.806 222.457 113.501 222.457Z" fill="#F2A40C"/>
</svg>
